<svg version="1" xmlns="http://www.w3.org/2000/svg" width="682.667" height="682.667" viewBox="0 0 512.000000 512.000000"><path d="M93.5 48.6c-13.2 1.8-21 6.7-25.5 15.8-3.3 6.8-5 15.6-5 26.1 0 3.8-.3 8.6-.6 10.6l-.6 3.6-4.2-.8c-14.5-2.7-26.2 9.6-31.2 32.8l-1.7 8.2-10.2-.6c-9.5-.5-10.4-.4-12.4 1.6S0 149 0 163.2c0 8.4.9 29.5 2 46.8 2.4 38.2 2.4 48.4.4 85.6-.9 15.9-1.6 42.3-1.6 58.6-.1 32.3.3 35.2 5.1 36.6 1.4.4 12.3.6 24.1.6 20.7-.2 22.5-.3 48.5-4.8 14.9-2.5 35.8-5.5 46.5-6.6 10.7-1.2 28.5-3.2 39.4-4.5 31-3.9 49.8-3.1 64.1 2.7l5.9 2.4 3.2 26.9c1.7 14.9 3.5 31.4 3.9 36.9.8 10.7 2.2 13.6 6.9 13.6 2 0 3.8-1.8 8.7-8.5 3.4-4.7 6.4-8.5 6.8-8.5.4 0 3.1 4.2 6 9.2 6.7 11.6 7.8 12.8 11.1 12.8 3.9 0 4.7-1.5 5.4-11 .5-8.1-.8-58.7-1.9-67.9-.6-5-2.3-4.9 15.5-1.2 5.8 1.1 23.3 3.7 39 5.6 15.7 1.9 34.6 4.4 42.1 5.7 19.8 3.2 19.9 3.1 19.9-21.2 0-22.2-2.6-42.8-7.1-56.6-2.5-7.9-10.6-16.4-15.4-16.4-3.6 0-4.8.7-6.5 3.9-1.3 2.6-.9 11.9 1.2 23.9.5 3.5.9 6.5.7 6.7-.3.2-3.6-1.2-7.4-3-12.8-6.3-22.3-7.9-44.5-7.9-10.7 0-23.8.6-29 1.3-20.5 2.6-48.7 8.4-68 13.9l-6.5 1.8-.2-33.6c-.1-35.2-2.6-107-4.4-132.5-1.7-23.2-1.8-49.4-.2-53.2 2.5-6.1 25.9-19.7 40.1-23.4 13.2-3.4 24-2.3 37.1 3.7 8.7 4 12.4 4.3 14.5 1.2 3.9-5.5 1.1-10.5-8.5-15.4-13.9-7-28.4-9.1-42.2-6-12.3 2.8-27.2 10.8-39.5 21.3l-4.9 4.2-2.6-4.7c-5.4-9.9-17.2-20.7-31.6-29.1-9.1-5.3-29.7-14.2-41.1-17.9-14.4-4.6-33.6-7.6-41.5-6.6zm27.7 19.3c38.2 10 62.6 24.4 74.6 44.1 2 3.4 2 3.8.6 8-1.7 4.9-1.6 9.1 1.2 53.3.8 12.6 1.9 46.2 2.4 74.8.9 47.2 1.8 67.2 3.6 79.8l.7 4.5-5.9-5.1c-11.1-9.6-24.4-15.4-44.8-19.6-10.3-2-13.8-2.2-46.4-2.2H72V291c0-8 .9-27.6 2-43.5 1.1-16.4 2-39.9 2-54 0-36.1 1.8-100.8 3-111.5 1.4-12.2 3.5-15.1 12.5-17.4 4.3-1.1 18.9.5 29.7 3.3zm-59.6 51c-.3.5-1 27.8-1.6 60.7-.6 33-1.5 64.8-2 70.9-.6 6-1 18.2-1.1 27 0 13.2.4 17.4 2.1 24 1.2 4.4 2.4 9 2.7 10.3.3 1.3 1.5 2.7 2.7 3.2 3.5 1.4 19.8 2.9 44.1 4 24.4 1.1 35.1 2.2 43.7 4.5 5.6 1.5 15.1 5 10.8 4-1.4-.4-11.1-.9-21.7-1.2-27.3-.8-43.3 1.4-77.1 10.9-10 2.8-18.5 4.8-18.7 4.6-1.1-1.1-3.5-31-4.4-55.8-1.7-45.4-3.4-130.8-2.7-138.9.3-4.3 1.3-10.2 2.2-13.2 2.6-8.7 10.8-15.3 19.7-15.8 1-.1 1.6.3 1.3.8zM24 157c0 .5-.2 1-.4 1-.3 0-.8-.5-1.1-1-.3-.6-.1-1 .4-1 .6 0 1.1.4 1.1 1zm317 184.5c8.1 1.8 26.4 8.6 29.6 11 1.4 1.1.2.9-4.1-.5-10.8-3.7-25.6-6.1-42.3-7-9-.5-17.6-.7-19.1-.5-1.4.2-10.9.6-21.1.9l-18.5.4 9-1.9c18-4 26.5-4.8 43-4.4 9.8.2 18.9 1 23.5 2zm-68.6 27.7c1.7 31.9 2.6 54 2.6 60.3v7l-3.1-5.3c-5.2-8.9-8.8-9.2-14.6-1.1-1.9 2.8-3.7 4.8-4 4.5-.8-.7-5-37.5-5.7-49.1-.4-6.1-1.3-13.9-2-17.5-.8-3.6-1.3-6.6-1.2-6.7.3-.4 21.4-3 24.8-3.2l2.6-.1.6 11.2z"/><path d="M322.5 107.2c-11.2 1.4-20.4 5.7-26.7 12.5-1.9 2.1-6.5 5.4-10.2 7.3-14.1 7.3-24.5 18.3-31.7 33.6-5.8 12.3-8.2 23.4-8.2 38.4.1 38.5 19.2 70.1 50.1 82.6 25.1 10.1 56.4 7.5 78.8-6.5l6.2-3.9 2 2.1c1.1 1.2 7.7 9.6 14.7 18.7 16.7 21.6 27 33.5 43.4 50.3 19.6 20 33 29.2 44.5 30.4 7 .7 11.9-1 17.4-6.1 12.1-11.1 12.3-26.9.5-44.4-5.3-8-21-24-32.4-33.1-15.8-12.8-47.1-33.6-61.6-41-2.4-1.2-4.3-2.4-4.3-2.7 0-.3 1.8-4.2 3.9-8.7 12.1-24.9 13.8-53.3 5-77.7-6.8-18.7-27.3-38.4-47.9-46.1-13.5-5-30.6-7.3-43.5-5.7zm25.5 17.3c13 2.4 25.9 8.7 34.9 17 22.4 20.8 27.8 56.3 13.1 86-15.9 32.1-49.2 51.1-78.9 45.1-21.5-4.4-38.3-17.7-48.1-38.1-6.2-12.9-8.1-21.1-8.1-34.6 0-29.2 15.5-54.1 41.6-66.8 19.3-9.5 30.1-11.5 45.5-8.6zm66.8 144.8c35.6 21.9 57 39.3 71.6 58.1 7.2 9.2 9.2 12.7 10.4 18.4 2.4 10.3-7.9 15.7-19 10.1-10.8-5.5-22.3-16.7-49.8-48.4-10-11.6-22.9-25.8-28.8-31.7L388.6 265l3.4-3.5c1.9-1.9 3.6-3.5 4-3.5.3 0 8.7 5.1 18.8 11.3z"/><path d="M356.8 165.1c-2.7 1.5-2.1 5.2 1.3 8.5 1.7 1.6 4.9 5.3 7.1 8.2 8.1 10.9 10 19.6 6 28.2-2.7 5.6-2.7 6.5-.2 9 4 4 11.7 1.5 15-5 7.3-14.4-5-42.9-20.9-48.6-4.4-1.6-6.1-1.6-8.3-.3z"/></svg>